<svg width="130" height="68" viewBox="0 0 130 68" fill="none" xmlns="http://www.w3.org/2000/svg">
<g filter="url(#filter0_d_97_47)">
<mask id="path-1-outside-1_97_47" maskUnits="userSpaceOnUse" x="2" y="27" width="101" height="29" fill="black">
<rect fill="white" x="2" y="27" width="101" height="29"/>
<path d="M13.592 54.252C10.64 54.252 8.216 53.556 6.32 52.164C4.424 50.748 3.404 48.732 3.26 46.116H10.784C10.856 47.004 11.12 47.652 11.576 48.06C12.032 48.468 12.62 48.672 13.34 48.672C13.988 48.672 14.516 48.516 14.924 48.204C15.356 47.868 15.572 47.412 15.572 46.836C15.572 46.092 15.224 45.516 14.528 45.108C13.832 44.7 12.704 44.244 11.144 43.74C9.488 43.188 8.144 42.66 7.112 42.156C6.104 41.628 5.216 40.872 4.448 39.888C3.704 38.88 3.332 37.572 3.332 35.964C3.332 34.332 3.74 32.94 4.556 31.788C5.372 30.612 6.5 29.724 7.94 29.124C9.38 28.524 11.012 28.224 12.836 28.224C15.788 28.224 18.14 28.92 19.892 30.312C21.668 31.68 22.616 33.612 22.736 36.108H15.068C15.044 35.34 14.804 34.764 14.348 34.38C13.916 33.996 13.352 33.804 12.656 33.804C12.128 33.804 11.696 33.96 11.36 34.272C11.024 34.584 10.856 35.028 10.856 35.604C10.856 36.084 11.036 36.504 11.396 36.864C11.78 37.2 12.248 37.5 12.8 37.764C13.352 38.004 14.168 38.316 15.248 38.7C16.856 39.252 18.176 39.804 19.208 40.356C20.264 40.884 21.164 41.64 21.908 42.624C22.676 43.584 23.06 44.808 23.06 46.296C23.06 47.808 22.676 49.164 21.908 50.364C21.164 51.564 20.072 52.512 18.632 53.208C17.216 53.904 15.536 54.252 13.592 54.252ZM49.8482 54H42.7922L33.3962 39.816V54H26.3402V28.62H33.3962L42.7922 42.984V28.62H49.8482V54ZM69.9236 49.86H60.9236L59.5556 54H52.1396L61.3916 28.62H69.5276L78.7436 54H71.2916L69.9236 49.86ZM68.1596 44.46L65.4236 36.252L62.7236 44.46H68.1596ZM101.095 37.08C101.095 38.616 100.735 40.02 100.015 41.292C99.3193 42.54 98.2513 43.548 96.8113 44.316C95.3953 45.06 93.6553 45.432 91.5913 45.432H88.0993V54H81.0433V28.62H91.5913C93.6313 28.62 95.3593 28.98 96.7753 29.7C98.2153 30.42 99.2953 31.416 100.015 32.688C100.735 33.96 101.095 35.424 101.095 37.08ZM90.9073 39.816C92.8993 39.816 93.8953 38.904 93.8953 37.08C93.8953 35.232 92.8993 34.308 90.9073 34.308H88.0993V39.816H90.9073Z"/>
</mask>
<path d="M13.592 54.252C10.64 54.252 8.216 53.556 6.32 52.164C4.424 50.748 3.404 48.732 3.26 46.116H10.784C10.856 47.004 11.12 47.652 11.576 48.06C12.032 48.468 12.62 48.672 13.34 48.672C13.988 48.672 14.516 48.516 14.924 48.204C15.356 47.868 15.572 47.412 15.572 46.836C15.572 46.092 15.224 45.516 14.528 45.108C13.832 44.7 12.704 44.244 11.144 43.74C9.488 43.188 8.144 42.66 7.112 42.156C6.104 41.628 5.216 40.872 4.448 39.888C3.704 38.88 3.332 37.572 3.332 35.964C3.332 34.332 3.74 32.94 4.556 31.788C5.372 30.612 6.5 29.724 7.94 29.124C9.38 28.524 11.012 28.224 12.836 28.224C15.788 28.224 18.14 28.92 19.892 30.312C21.668 31.68 22.616 33.612 22.736 36.108H15.068C15.044 35.34 14.804 34.764 14.348 34.38C13.916 33.996 13.352 33.804 12.656 33.804C12.128 33.804 11.696 33.96 11.36 34.272C11.024 34.584 10.856 35.028 10.856 35.604C10.856 36.084 11.036 36.504 11.396 36.864C11.78 37.2 12.248 37.5 12.8 37.764C13.352 38.004 14.168 38.316 15.248 38.7C16.856 39.252 18.176 39.804 19.208 40.356C20.264 40.884 21.164 41.64 21.908 42.624C22.676 43.584 23.06 44.808 23.06 46.296C23.06 47.808 22.676 49.164 21.908 50.364C21.164 51.564 20.072 52.512 18.632 53.208C17.216 53.904 15.536 54.252 13.592 54.252ZM49.8482 54H42.7922L33.3962 39.816V54H26.3402V28.62H33.3962L42.7922 42.984V28.62H49.8482V54ZM69.9236 49.86H60.9236L59.5556 54H52.1396L61.3916 28.62H69.5276L78.7436 54H71.2916L69.9236 49.86ZM68.1596 44.46L65.4236 36.252L62.7236 44.46H68.1596ZM101.095 37.08C101.095 38.616 100.735 40.02 100.015 41.292C99.3193 42.54 98.2513 43.548 96.8113 44.316C95.3953 45.06 93.6553 45.432 91.5913 45.432H88.0993V54H81.0433V28.62H91.5913C93.6313 28.62 95.3593 28.98 96.7753 29.7C98.2153 30.42 99.2953 31.416 100.015 32.688C100.735 33.96 101.095 35.424 101.095 37.08ZM90.9073 39.816C92.8993 39.816 93.8953 38.904 93.8953 37.08C93.8953 35.232 92.8993 34.308 90.9073 34.308H88.0993V39.816H90.9073Z" fill="#0052FF"/>
<path d="M6.32 52.164L5.7216 52.9652L5.72819 52.9701L6.32 52.164ZM3.26 46.116V45.116H2.20344L2.26151 46.171L3.26 46.116ZM10.784 46.116L11.7807 46.0352L11.7062 45.116H10.784V46.116ZM11.576 48.06L10.9092 48.8052L11.576 48.06ZM14.924 48.204L15.5315 48.9984L15.5379 48.9934L14.924 48.204ZM14.528 45.108L15.0337 44.2453H15.0337L14.528 45.108ZM11.144 43.74L10.8278 44.6887L10.8366 44.6916L11.144 43.74ZM7.112 42.156L6.64799 43.0418L6.66049 43.0484L6.67316 43.0546L7.112 42.156ZM4.448 39.888L3.64343 40.4819L3.65141 40.4927L3.65968 40.5033L4.448 39.888ZM4.556 31.788L5.37206 32.366L5.37759 32.3581L4.556 31.788ZM7.94 29.124L7.55539 28.2009L7.55538 28.2009L7.94 29.124ZM19.892 30.312L19.2699 31.095L19.2758 31.0996L19.2818 31.1042L19.892 30.312ZM22.736 36.108V37.108H23.7852L23.7348 36.06L22.736 36.108ZM15.068 36.108L14.0685 36.1392L14.0988 37.108H15.068V36.108ZM14.348 34.38L13.6836 35.1274L13.6936 35.1363L13.7039 35.1449L14.348 34.38ZM11.36 34.272L12.0405 35.0048L11.36 34.272ZM11.396 36.864L10.6889 37.5711L10.7124 37.5947L10.7375 37.6166L11.396 36.864ZM12.8 37.764L12.3685 38.6661L12.3848 38.6739L12.4013 38.6811L12.8 37.764ZM15.248 38.7L14.913 39.6423L14.9233 39.6458L15.248 38.7ZM19.208 40.356L18.7363 41.2378L18.7485 41.2443L18.7608 41.2504L19.208 40.356ZM21.908 42.624L21.1103 43.2271L21.1186 43.238L21.1271 43.2487L21.908 42.624ZM21.908 50.364L21.0657 49.8249L21.0619 49.831L21.0581 49.8371L21.908 50.364ZM18.632 53.208L18.1968 52.3076L18.1909 52.3106L18.632 53.208ZM13.592 54.252V53.252C10.798 53.252 8.59669 52.5949 6.91181 51.3579L6.32 52.164L5.72819 52.9701C7.83531 54.5171 10.482 55.252 13.592 55.252V54.252ZM6.32 52.164L6.91838 51.3628C5.28698 50.1444 4.38818 48.4171 4.25849 46.061L3.26 46.116L2.26151 46.171C2.41982 49.0469 3.56102 51.3516 5.72162 52.9652L6.32 52.164ZM3.26 46.116V47.116H10.784V46.116V45.116H3.26V46.116ZM10.784 46.116L9.78727 46.1968C9.87062 47.2248 10.1903 48.162 10.9092 48.8052L11.576 48.06L12.2428 47.3148C12.0497 47.142 11.8414 46.7832 11.7807 46.0352L10.784 46.116ZM11.576 48.06L10.9092 48.8052C11.5802 49.4056 12.42 49.672 13.34 49.672V48.672V47.672C12.82 47.672 12.4838 47.5304 12.2428 47.3148L11.576 48.06ZM13.34 48.672V49.672C14.1493 49.672 14.9078 49.4753 15.5315 48.9984L14.924 48.204L14.3166 47.4096C14.1242 47.5567 13.8267 47.672 13.34 47.672V48.672ZM14.924 48.204L15.5379 48.9934C16.228 48.4566 16.572 47.7018 16.572 46.836H15.572H14.572C14.572 47.1222 14.484 47.2794 14.3101 47.4146L14.924 48.204ZM15.572 46.836H16.572C16.572 45.7022 16.0045 44.8144 15.0337 44.2453L14.528 45.108L14.0223 45.9707C14.4435 46.2176 14.572 46.4818 14.572 46.836H15.572ZM14.528 45.108L15.0337 44.2453C14.2393 43.7796 13.025 43.2968 11.4514 42.7884L11.144 43.74L10.8366 44.6916C12.383 45.1912 13.4247 45.6204 14.0223 45.9707L14.528 45.108ZM11.144 43.74L11.4602 42.7913C9.82701 42.2469 8.52837 41.7348 7.55084 41.2574L7.112 42.156L6.67316 43.0546C7.75963 43.5852 9.14899 44.1291 10.8278 44.6887L11.144 43.74ZM7.112 42.156L7.57601 41.2702C6.70593 40.8144 5.92528 40.1555 5.23632 39.2727L4.448 39.888L3.65968 40.5033C4.50672 41.5885 5.50207 42.4416 6.64799 43.0418L7.112 42.156ZM4.448 39.888L5.25257 39.2941C4.66743 38.5014 4.332 37.4191 4.332 35.964H3.332H2.332C2.332 37.7249 2.74057 39.2586 3.64343 40.4819L4.448 39.888ZM3.332 35.964H4.332C4.332 34.5057 4.69367 33.3237 5.37202 32.366L4.556 31.788L3.73998 31.21C2.78633 32.5563 2.332 34.1583 2.332 35.964H3.332ZM4.556 31.788L5.37759 32.3581C6.0749 31.3531 7.04453 30.5804 8.32462 30.0471L7.94 29.124L7.55538 28.2009C5.95547 28.8676 4.6691 29.8709 3.73441 31.2179L4.556 31.788ZM7.94 29.124L8.32462 30.0471C9.62393 29.5057 11.122 29.224 12.836 29.224V28.224V27.224C10.902 27.224 9.13607 27.5423 7.55539 28.2009L7.94 29.124ZM12.836 28.224V29.224C15.6345 29.224 17.7442 29.8827 19.2699 31.095L19.892 30.312L20.5141 29.529C18.5358 27.9573 15.9415 27.224 12.836 27.224V28.224ZM19.892 30.312L19.2818 31.1042C20.7969 32.2713 21.6294 33.9153 21.7372 36.156L22.736 36.108L23.7348 36.06C23.6026 33.3087 22.5391 31.0887 20.5022 29.5198L19.892 30.312ZM22.736 36.108V35.108H15.068V36.108V37.108H22.736V36.108ZM15.068 36.108L16.0675 36.0768C16.0374 35.1121 15.7243 34.2316 14.9921 33.6151L14.348 34.38L13.7039 35.1449C13.8837 35.2964 14.0506 35.5679 14.0685 36.1392L15.068 36.108ZM14.348 34.38L15.0124 33.6326C14.3615 33.0541 13.5444 32.804 12.656 32.804V33.804V34.804C13.1596 34.804 13.4705 34.9379 13.6836 35.1274L14.348 34.38ZM12.656 33.804V32.804C11.9166 32.804 11.2285 33.0295 10.6795 33.5392L11.36 34.272L12.0405 35.0048C12.1635 34.8905 12.3394 34.804 12.656 34.804V33.804ZM11.36 34.272L10.6795 33.5392C10.0901 34.0866 9.856 34.826 9.856 35.604H10.856H11.856C11.856 35.23 11.9579 35.0814 12.0405 35.0048L11.36 34.272ZM10.856 35.604H9.856C9.856 36.3666 10.154 37.0362 10.6889 37.5711L11.396 36.864L12.1031 36.1569C11.918 35.9718 11.856 35.8014 11.856 35.604H10.856ZM11.396 36.864L10.7375 37.6166C11.202 38.023 11.7502 38.3704 12.3685 38.6661L12.8 37.764L13.2315 36.8619C12.7458 36.6296 12.358 36.377 12.0545 36.1114L11.396 36.864ZM12.8 37.764L12.4013 38.6811C12.9852 38.935 13.827 39.2561 14.913 39.6422L15.248 38.7L15.583 37.7578C14.509 37.3759 13.7188 37.073 13.1987 36.8469L12.8 37.764ZM15.248 38.7L14.9233 39.6458C16.5012 40.1875 17.7674 40.7195 18.7363 41.2378L19.208 40.356L19.6797 39.4742C18.5846 38.8885 17.2108 38.3165 15.5727 37.7542L15.248 38.7ZM19.208 40.356L18.7608 41.2504C19.6729 41.7065 20.4549 42.3602 21.1103 43.2271L21.908 42.624L22.7057 42.0209C21.8731 40.9198 20.8551 40.0615 19.6552 39.4616L19.208 40.356ZM21.908 42.624L21.1271 43.2487C21.7252 43.9963 22.06 44.9857 22.06 46.296H23.06H24.06C24.06 44.6303 23.6268 43.1717 22.6889 41.9993L21.908 42.624ZM23.06 46.296H22.06C22.06 47.6292 21.7243 48.7959 21.0657 49.8249L21.908 50.364L22.7503 50.9031C23.6277 49.5321 24.06 47.9868 24.06 46.296H23.06ZM21.908 50.364L21.0581 49.8371C20.4269 50.8551 19.4893 51.683 18.1968 52.3077L18.632 53.208L19.0672 54.1083C20.6547 53.341 21.9011 52.2729 22.7579 50.8909L21.908 50.364ZM18.632 53.208L18.1909 52.3106C16.9403 52.9253 15.4179 53.252 13.592 53.252V54.252V55.252C15.6541 55.252 17.4917 54.8828 19.0731 54.1054L18.632 53.208ZM49.8482 54V55H50.8482V54H49.8482ZM42.7922 54L41.9585 54.5523L42.2551 55H42.7922V54ZM33.3962 39.816L34.2299 39.2637L32.3962 36.4957V39.816H33.3962ZM33.3962 54V55H34.3962V54H33.3962ZM26.3402 54H25.3402V55H26.3402V54ZM26.3402 28.62V27.62H25.3402V28.62H26.3402ZM33.3962 28.62L34.2331 28.0726L33.937 27.62H33.3962V28.62ZM42.7922 42.984L41.9554 43.5314L43.7922 46.3395V42.984H42.7922ZM42.7922 28.62V27.62H41.7922V28.62H42.7922ZM49.8482 28.62H50.8482V27.62H49.8482V28.62ZM49.8482 54V53H42.7922V54V55H49.8482V54ZM42.7922 54L43.6259 53.4477L34.2299 39.2637L33.3962 39.816L32.5625 40.3683L41.9585 54.5523L42.7922 54ZM33.3962 39.816H32.3962V54H33.3962H34.3962V39.816H33.3962ZM33.3962 54V53H26.3402V54V55H33.3962V54ZM26.3402 54H27.3402V28.62H26.3402H25.3402V54H26.3402ZM26.3402 28.62V29.62H33.3962V28.62V27.62H26.3402V28.62ZM33.3962 28.62L32.5594 29.1674L41.9554 43.5314L42.7922 42.984L43.6291 42.4366L34.2331 28.0726L33.3962 28.62ZM42.7922 42.984H43.7922V28.62H42.7922H41.7922V42.984H42.7922ZM42.7922 28.62V29.62H49.8482V28.62V27.62H42.7922V28.62ZM49.8482 28.62H48.8482V54H49.8482H50.8482V28.62H49.8482ZM69.9236 49.86L70.8731 49.5462L70.6463 48.86H69.9236V49.86ZM60.9236 49.86V48.86H60.2008L59.9741 49.5462L60.9236 49.86ZM59.5556 54V55H60.2783L60.5051 54.3138L59.5556 54ZM52.1396 54L51.2 53.6575L50.7107 55H52.1396V54ZM61.3916 28.62V27.62H60.6917L60.452 28.2775L61.3916 28.62ZM69.5276 28.62L70.4675 28.2787L70.2283 27.62H69.5276V28.62ZM78.7436 54V55H80.1706L79.6835 53.6587L78.7436 54ZM71.2916 54L70.3421 54.3138L70.5688 55H71.2916V54ZM68.1596 44.46V45.46H69.547L69.1082 44.1438L68.1596 44.46ZM65.4236 36.252L66.3722 35.9358L65.4173 33.0709L64.4736 35.9395L65.4236 36.252ZM62.7236 44.46L61.7736 44.1475L61.3419 45.46H62.7236V44.46ZM69.9236 49.86V48.86H60.9236V49.86V50.86H69.9236V49.86ZM60.9236 49.86L59.9741 49.5462L58.6061 53.6862L59.5556 54L60.5051 54.3138L61.8731 50.1737L60.9236 49.86ZM59.5556 54V53H52.1396V54V55H59.5556V54ZM52.1396 54L53.0791 54.3425L62.3311 28.9625L61.3916 28.62L60.452 28.2775L51.2 53.6575L52.1396 54ZM61.3916 28.62V29.62H69.5276V28.62V27.62H61.3916V28.62ZM69.5276 28.62L68.5876 28.9613L77.8036 54.3413L78.7436 54L79.6835 53.6587L70.4675 28.2787L69.5276 28.62ZM78.7436 54V53H71.2916V54V55H78.7436V54ZM71.2916 54L72.2411 53.6862L70.8731 49.5462L69.9236 49.86L68.9741 50.1737L70.3421 54.3138L71.2916 54ZM68.1596 44.46L69.1082 44.1438L66.3722 35.9358L65.4236 36.252L64.4749 36.5682L67.2109 44.7762L68.1596 44.46ZM65.4236 36.252L64.4736 35.9395L61.7736 44.1475L62.7236 44.46L63.6735 44.7725L66.3735 36.5645L65.4236 36.252ZM62.7236 44.46V45.46H68.1596V44.46V43.46H62.7236V44.46ZM100.015 41.292L99.1451 40.7994L99.142 40.8049L100.015 41.292ZM96.8113 44.316L97.2765 45.2013L97.2819 45.1984L96.8113 44.316ZM88.0993 45.432V44.432H87.0993V45.432H88.0993ZM88.0993 54V55H89.0993V54H88.0993ZM81.0433 54H80.0433V55H81.0433V54ZM81.0433 28.62V27.62H80.0433V28.62H81.0433ZM96.7753 29.7L96.3221 30.5914L96.3281 30.5944L96.7753 29.7ZM100.015 32.688L99.1451 33.1806V33.1806L100.015 32.688ZM88.0993 34.308V33.308H87.0993V34.308H88.0993ZM88.0993 39.816H87.0993V40.816H88.0993V39.816ZM101.095 37.08H100.095C100.095 38.4525 99.7757 39.6854 99.1451 40.7994L100.015 41.292L100.886 41.7846C101.695 40.3546 102.095 38.7795 102.095 37.08H101.095ZM100.015 41.292L99.142 40.8049C98.5523 41.8623 97.636 42.7428 96.3408 43.4336L96.8113 44.316L97.2819 45.1984C98.8666 44.3532 100.086 43.2177 100.889 41.7791L100.015 41.292ZM96.8113 44.316L96.3462 43.4308C95.1093 44.0807 93.5389 44.432 91.5913 44.432V45.432V46.432C93.7717 46.432 95.6814 46.0393 97.2765 45.2012L96.8113 44.316ZM91.5913 45.432V44.432H88.0993V45.432V46.432H91.5913V45.432ZM88.0993 45.432H87.0993V54H88.0993H89.0993V45.432H88.0993ZM88.0993 54V53H81.0433V54V55H88.0993V54ZM81.0433 54H82.0433V28.62H81.0433H80.0433V54H81.0433ZM81.0433 28.62V29.62H91.5913V28.62V27.62H81.0433V28.62ZM91.5913 28.62V29.62C93.5172 29.62 95.0807 29.9602 96.3221 30.5914L96.7753 29.7L97.2286 28.8086C95.638 27.9998 93.7455 27.62 91.5913 27.62V28.62ZM96.7753 29.7L96.3281 30.5944C97.6091 31.2349 98.5329 32.099 99.1451 33.1806L100.015 32.688L100.886 32.1954C100.058 30.7329 98.8216 29.6051 97.2226 28.8056L96.7753 29.7ZM100.015 32.688L99.1451 33.1806C99.7692 34.2833 100.095 35.5733 100.095 37.08H101.095H102.095C102.095 35.2747 101.701 33.6367 100.886 32.1954L100.015 32.688ZM90.9073 39.816V40.816C92.0367 40.816 93.0703 40.5593 93.8237 39.8695C94.5937 39.1644 94.8953 38.1699 94.8953 37.08H93.8953H92.8953C92.8953 37.8141 92.699 38.1876 92.473 38.3945C92.2304 38.6167 91.77 38.816 90.9073 38.816V39.816ZM93.8953 37.08H94.8953C94.8953 35.9818 94.5959 34.9799 93.8285 34.2679C93.0752 33.5691 92.0396 33.308 90.9073 33.308V34.308V35.308C91.7671 35.308 92.2255 35.5089 92.4682 35.7341C92.6968 35.9461 92.8953 36.3302 92.8953 37.08H93.8953ZM90.9073 34.308V33.308H88.0993V34.308V35.308H90.9073V34.308ZM88.0993 34.308H87.0993V39.816H88.0993H89.0993V34.308H88.0993ZM88.0993 39.816V40.816H90.9073V39.816V38.816H88.0993V39.816Z" fill="white" mask="url(#path-1-outside-1_97_47)"/>
</g>
<g filter="url(#filter1_d_97_47)">
<mask id="path-3-outside-2_97_47" maskUnits="userSpaceOnUse" x="104.159" y="25.6544" width="15.6344" height="16.2458" fill="black">
<rect fill="white" x="104.159" y="25.6544" width="15.6344" height="16.2458"/>
<path d="M111.201 27.916L117.891 30.2698L110.617 38.4723L106.202 36.919L111.201 27.916Z"/>
</mask>
<path d="M111.201 27.916L117.891 30.2698L110.617 38.4723L106.202 36.919L111.201 27.916Z" fill="#0052FF"/>
<path d="M111.201 27.916L111.533 26.9727L110.737 26.6925L110.327 27.4305L111.201 27.916ZM117.891 30.2698L118.64 30.9333L119.627 29.8202L118.223 29.3265L117.891 30.2698ZM110.617 38.4723L110.285 39.4156L110.919 39.6387L111.365 39.1358L110.617 38.4723ZM106.202 36.919L105.328 36.4335L104.753 37.4692L105.87 37.8623L106.202 36.919ZM111.201 27.916L110.869 28.8593L117.559 31.2131L117.891 30.2698L118.223 29.3265L111.533 26.9727L111.201 27.916ZM117.891 30.2698L117.143 29.6062L109.869 37.8088L110.617 38.4723L111.365 39.1358L118.64 30.9333L117.891 30.2698ZM110.617 38.4723L110.949 37.529L106.534 35.9757L106.202 36.919L105.87 37.8623L110.285 39.4156L110.617 38.4723ZM106.202 36.919L107.076 37.4045L112.076 28.4015L111.201 27.916L110.327 27.4305L105.328 36.4335L106.202 36.919Z" fill="white" mask="url(#path-3-outside-2_97_47)"/>
</g>
<defs>
<filter id="filter0_d_97_47" x="0.203438" y="27.224" width="101.892" height="31.028" filterUnits="userSpaceOnUse" color-interpolation-filters="sRGB">
<feFlood flood-opacity="0" result="BackgroundImageFix"/>
<feColorMatrix in="SourceAlpha" type="matrix" values="0 0 0 0 0 0 0 0 0 0 0 0 0 0 0 0 0 0 127 0" result="hardAlpha"/>
<feOffset dx="-2" dy="3"/>
<feComposite in2="hardAlpha" operator="out"/>
<feColorMatrix type="matrix" values="0 0 0 0 0.329412 0 0 0 0 0.305882 0 0 0 0 0.305882 0 0 0 0.49 0"/>
<feBlend mode="normal" in2="BackgroundImageFix" result="effect1_dropShadow_97_47"/>
<feBlend mode="normal" in="SourceGraphic" in2="effect1_dropShadow_97_47" result="shape"/>
</filter>
<filter id="filter1_d_97_47" x="102.753" y="26.6925" width="16.8741" height="15.9462" filterUnits="userSpaceOnUse" color-interpolation-filters="sRGB">
<feFlood flood-opacity="0" result="BackgroundImageFix"/>
<feColorMatrix in="SourceAlpha" type="matrix" values="0 0 0 0 0 0 0 0 0 0 0 0 0 0 0 0 0 0 127 0" result="hardAlpha"/>
<feOffset dx="-2" dy="3"/>
<feComposite in2="hardAlpha" operator="out"/>
<feColorMatrix type="matrix" values="0 0 0 0 0.329412 0 0 0 0 0.305882 0 0 0 0 0.305882 0 0 0 0.49 0"/>
<feBlend mode="normal" in2="BackgroundImageFix" result="effect1_dropShadow_97_47"/>
<feBlend mode="normal" in="SourceGraphic" in2="effect1_dropShadow_97_47" result="shape"/>
</filter>
</defs>
</svg>
