<svg width="105" height="32" viewBox="0 0 105 32" fill="none" xmlns="http://www.w3.org/2000/svg">
<g filter="url(#filter0_d_74_491)">
<mask id="path-1-outside-1_74_491" maskUnits="userSpaceOnUse" x="4" y="0" width="101" height="29" fill="black">
<rect fill="white" x="4" width="101" height="29"/>
<path d="M15.592 27.252C12.64 27.252 10.216 26.556 8.32 25.164C6.424 23.748 5.404 21.732 5.26 19.116H12.784C12.856 20.004 13.12 20.652 13.576 21.06C14.032 21.468 14.62 21.672 15.34 21.672C15.988 21.672 16.516 21.516 16.924 21.204C17.356 20.868 17.572 20.412 17.572 19.836C17.572 19.092 17.224 18.516 16.528 18.108C15.832 17.7 14.704 17.244 13.144 16.74C11.488 16.188 10.144 15.66 9.112 15.156C8.104 14.628 7.216 13.872 6.448 12.888C5.704 11.88 5.332 10.572 5.332 8.964C5.332 7.332 5.74 5.94 6.556 4.788C7.372 3.612 8.5 2.724 9.94 2.124C11.38 1.524 13.012 1.224 14.836 1.224C17.788 1.224 20.14 1.92 21.892 3.312C23.668 4.68 24.616 6.612 24.736 9.108H17.068C17.044 8.34 16.804 7.764 16.348 7.38C15.916 6.996 15.352 6.804 14.656 6.804C14.128 6.804 13.696 6.96 13.36 7.272C13.024 7.584 12.856 8.028 12.856 8.604C12.856 9.084 13.036 9.504 13.396 9.864C13.78 10.2 14.248 10.5 14.8 10.764C15.352 11.004 16.168 11.316 17.248 11.7C18.856 12.252 20.176 12.804 21.208 13.356C22.264 13.884 23.164 14.64 23.908 15.624C24.676 16.584 25.06 17.808 25.06 19.296C25.06 20.808 24.676 22.164 23.908 23.364C23.164 24.564 22.072 25.512 20.632 26.208C19.216 26.904 17.536 27.252 15.592 27.252ZM51.8482 27H44.7922L35.3962 12.816V27H28.3402V1.62H35.3962L44.7922 15.984V1.62H51.8482V27ZM71.9236 22.86H62.9236L61.5556 27H54.1396L63.3916 1.62H71.5276L80.7436 27H73.2916L71.9236 22.86ZM70.1596 17.46L67.4236 9.252L64.7236 17.46H70.1596ZM103.095 10.08C103.095 11.616 102.735 13.02 102.015 14.292C101.319 15.54 100.251 16.548 98.8113 17.316C97.3953 18.06 95.6553 18.432 93.5913 18.432H90.0993V27H83.0433V1.62H93.5913C95.6313 1.62 97.3593 1.98 98.7753 2.7C100.215 3.42 101.295 4.416 102.015 5.688C102.735 6.96 103.095 8.424 103.095 10.08ZM92.9073 12.816C94.8993 12.816 95.8953 11.904 95.8953 10.08C95.8953 8.232 94.8993 7.308 92.9073 7.308H90.0993V12.816H92.9073Z"/>
</mask>
<path d="M15.592 27.252C12.64 27.252 10.216 26.556 8.32 25.164C6.424 23.748 5.404 21.732 5.26 19.116H12.784C12.856 20.004 13.12 20.652 13.576 21.06C14.032 21.468 14.62 21.672 15.34 21.672C15.988 21.672 16.516 21.516 16.924 21.204C17.356 20.868 17.572 20.412 17.572 19.836C17.572 19.092 17.224 18.516 16.528 18.108C15.832 17.7 14.704 17.244 13.144 16.74C11.488 16.188 10.144 15.66 9.112 15.156C8.104 14.628 7.216 13.872 6.448 12.888C5.704 11.88 5.332 10.572 5.332 8.964C5.332 7.332 5.74 5.94 6.556 4.788C7.372 3.612 8.5 2.724 9.94 2.124C11.38 1.524 13.012 1.224 14.836 1.224C17.788 1.224 20.14 1.92 21.892 3.312C23.668 4.68 24.616 6.612 24.736 9.108H17.068C17.044 8.34 16.804 7.764 16.348 7.38C15.916 6.996 15.352 6.804 14.656 6.804C14.128 6.804 13.696 6.96 13.36 7.272C13.024 7.584 12.856 8.028 12.856 8.604C12.856 9.084 13.036 9.504 13.396 9.864C13.78 10.2 14.248 10.5 14.8 10.764C15.352 11.004 16.168 11.316 17.248 11.7C18.856 12.252 20.176 12.804 21.208 13.356C22.264 13.884 23.164 14.64 23.908 15.624C24.676 16.584 25.06 17.808 25.06 19.296C25.06 20.808 24.676 22.164 23.908 23.364C23.164 24.564 22.072 25.512 20.632 26.208C19.216 26.904 17.536 27.252 15.592 27.252ZM51.8482 27H44.7922L35.3962 12.816V27H28.3402V1.62H35.3962L44.7922 15.984V1.62H51.8482V27ZM71.9236 22.86H62.9236L61.5556 27H54.1396L63.3916 1.62H71.5276L80.7436 27H73.2916L71.9236 22.86ZM70.1596 17.46L67.4236 9.252L64.7236 17.46H70.1596ZM103.095 10.08C103.095 11.616 102.735 13.02 102.015 14.292C101.319 15.54 100.251 16.548 98.8113 17.316C97.3953 18.06 95.6553 18.432 93.5913 18.432H90.0993V27H83.0433V1.62H93.5913C95.6313 1.62 97.3593 1.98 98.7753 2.7C100.215 3.42 101.295 4.416 102.015 5.688C102.735 6.96 103.095 8.424 103.095 10.08ZM92.9073 12.816C94.8993 12.816 95.8953 11.904 95.8953 10.08C95.8953 8.232 94.8993 7.308 92.9073 7.308H90.0993V12.816H92.9073Z" fill="#BC9BF3" shape-rendering="crispEdges"/>
<path d="M8.32 25.164L7.7216 25.9652L7.72819 25.9701L8.32 25.164ZM5.26 19.116V18.116H4.20344L4.26151 19.171L5.26 19.116ZM12.784 19.116L13.7807 19.0352L13.7062 18.116H12.784V19.116ZM13.576 21.06L12.9092 21.8052L13.576 21.06ZM16.924 21.204L17.5315 21.9984L17.5379 21.9934L16.924 21.204ZM16.528 18.108L17.0337 17.2453H17.0337L16.528 18.108ZM13.144 16.74L12.8278 17.6887L12.8366 17.6916L13.144 16.74ZM9.112 15.156L8.64799 16.0418L8.66049 16.0484L8.67316 16.0546L9.112 15.156ZM6.448 12.888L5.64343 13.4819L5.65141 13.4927L5.65968 13.5033L6.448 12.888ZM6.556 4.788L7.37206 5.36604L7.37759 5.35808L6.556 4.788ZM9.94 2.124L9.55539 1.20092L9.55538 1.20092L9.94 2.124ZM21.892 3.312L21.2699 4.09496L21.2758 4.09963L21.2818 4.10422L21.892 3.312ZM24.736 9.108V10.108H25.7852L25.7348 9.05998L24.736 9.108ZM17.068 9.108L16.0685 9.13923L16.0988 10.108H17.068V9.108ZM16.348 7.38L15.6836 8.12741L15.6936 8.1363L15.7039 8.14491L16.348 7.38ZM13.36 7.272L14.0405 8.00479L13.36 7.272ZM13.396 9.864L12.6889 10.5711L12.7124 10.5947L12.7375 10.6166L13.396 9.864ZM14.8 10.764L14.3685 11.6661L14.3848 11.6739L14.4013 11.6811L14.8 10.764ZM17.248 11.7L16.913 12.6423L16.9233 12.6458L17.248 11.7ZM21.208 13.356L20.7363 14.2378L20.7485 14.2443L20.7608 14.2504L21.208 13.356ZM23.908 15.624L23.1103 16.2271L23.1186 16.238L23.1271 16.2487L23.908 15.624ZM23.908 23.364L23.0657 22.8249L23.0619 22.831L23.0581 22.8371L23.908 23.364ZM20.632 26.208L20.1968 25.3076L20.1909 25.3106L20.632 26.208ZM15.592 27.252V26.252C12.798 26.252 10.5967 25.5949 8.91181 24.3579L8.32 25.164L7.72819 25.9701C9.83531 27.5171 12.482 28.252 15.592 28.252V27.252ZM8.32 25.164L8.91838 24.3628C7.28698 23.1444 6.38818 21.4171 6.25849 19.061L5.26 19.116L4.26151 19.171C4.41982 22.0469 5.56102 24.3516 7.72162 25.9652L8.32 25.164ZM5.26 19.116V20.116H12.784V19.116V18.116H5.26V19.116ZM12.784 19.116L11.7873 19.1968C11.8706 20.2248 12.1903 21.162 12.9092 21.8052L13.576 21.06L14.2428 20.3148C14.0497 20.142 13.8414 19.7832 13.7807 19.0352L12.784 19.116ZM13.576 21.06L12.9092 21.8052C13.5802 22.4056 14.42 22.672 15.34 22.672V21.672V20.672C14.82 20.672 14.4838 20.5304 14.2428 20.3148L13.576 21.06ZM15.34 21.672V22.672C16.1493 22.672 16.9078 22.4753 17.5315 21.9984L16.924 21.204L16.3166 20.4096C16.1242 20.5567 15.8267 20.672 15.34 20.672V21.672ZM16.924 21.204L17.5379 21.9934C18.228 21.4566 18.572 20.7018 18.572 19.836H17.572H16.572C16.572 20.1222 16.484 20.2794 16.3101 20.4146L16.924 21.204ZM17.572 19.836H18.572C18.572 18.7022 18.0045 17.8144 17.0337 17.2453L16.528 18.108L16.0223 18.9707C16.4435 19.2176 16.572 19.4818 16.572 19.836H17.572ZM16.528 18.108L17.0337 17.2453C16.2393 16.7796 15.025 16.2968 13.4514 15.7884L13.144 16.74L12.8366 17.6916C14.383 18.1912 15.4247 18.6204 16.0223 18.9707L16.528 18.108ZM13.144 16.74L13.4602 15.7913C11.827 15.2469 10.5284 14.7348 9.55084 14.2574L9.112 15.156L8.67316 16.0546C9.75963 16.5852 11.149 17.1291 12.8278 17.6887L13.144 16.74ZM9.112 15.156L9.57601 14.2702C8.70593 13.8144 7.92528 13.1555 7.23632 12.2727L6.448 12.888L5.65968 13.5033C6.50672 14.5885 7.50207 15.4416 8.64799 16.0418L9.112 15.156ZM6.448 12.888L7.25257 12.2941C6.66743 11.5014 6.332 10.4191 6.332 8.964H5.332H4.332C4.332 10.7249 4.74057 12.2586 5.64343 13.4819L6.448 12.888ZM5.332 8.964H6.332C6.332 7.50568 6.69367 6.3237 7.37202 5.36602L6.556 4.788L5.73998 4.20998C4.78633 5.5563 4.332 7.15831 4.332 8.964H5.332ZM6.556 4.788L7.37759 5.35808C8.0749 4.35313 9.04453 3.58045 10.3246 3.04708L9.94 2.124L9.55538 1.20092C7.95547 1.86755 6.6691 2.87086 5.73441 4.21792L6.556 4.788ZM9.94 2.124L10.3246 3.04708C11.6239 2.5057 13.122 2.224 14.836 2.224V1.224V0.223999C12.902 0.223999 11.1361 0.542302 9.55539 1.20092L9.94 2.124ZM14.836 1.224V2.224C17.6345 2.224 19.7442 2.88274 21.2699 4.09496L21.892 3.312L22.5141 2.52904C20.5358 0.95726 17.9415 0.223999 14.836 0.223999V1.224ZM21.892 3.312L21.2818 4.10422C22.7969 5.27131 23.6294 6.9153 23.7372 9.15602L24.736 9.108L25.7348 9.05998C25.6026 6.3087 24.5391 4.08869 22.5022 2.51977L21.892 3.312ZM24.736 9.108V8.108H17.068V9.108V10.108H24.736V9.108ZM17.068 9.108L18.0675 9.07677C18.0374 8.1121 17.7243 7.23164 16.9921 6.61509L16.348 7.38L15.7039 8.14491C15.8837 8.29636 16.0506 8.5679 16.0685 9.13923L17.068 9.108ZM16.348 7.38L17.0124 6.63259C16.3615 6.05407 15.5444 5.804 14.656 5.804V6.804V7.804C15.1596 7.804 15.4705 7.93793 15.6836 8.12741L16.348 7.38ZM14.656 6.804V5.804C13.9166 5.804 13.2285 6.02945 12.6795 6.53921L13.36 7.272L14.0405 8.00479C14.1635 7.89054 14.3394 7.804 14.656 7.804V6.804ZM13.36 7.272L12.6795 6.53921C12.0901 7.08659 11.856 7.82596 11.856 8.604H12.856H13.856C13.856 8.23004 13.9579 8.0814 14.0405 8.00479L13.36 7.272ZM12.856 8.604H11.856C11.856 9.36655 12.154 10.0362 12.6889 10.5711L13.396 9.864L14.1031 9.15689C13.918 8.9718 13.856 8.80145 13.856 8.604H12.856ZM13.396 9.864L12.7375 10.6166C13.202 11.023 13.7502 11.3704 14.3685 11.6661L14.8 10.764L15.2315 9.86186C14.7458 9.62961 14.358 9.37695 14.0545 9.11142L13.396 9.864ZM14.8 10.764L14.4013 11.6811C14.9852 11.935 15.827 12.2561 16.913 12.6422L17.248 11.7L17.583 10.7578C16.509 10.3759 15.7188 10.073 15.1987 9.84693L14.8 10.764ZM17.248 11.7L16.9233 12.6458C18.5012 13.1875 19.7674 13.7195 20.7363 14.2378L21.208 13.356L21.6797 12.4742C20.5846 11.8885 19.2108 11.3165 17.5727 10.7542L17.248 11.7ZM21.208 13.356L20.7608 14.2504C21.6729 14.7065 22.4549 15.3602 23.1103 16.2271L23.908 15.624L24.7057 15.0209C23.8731 13.9198 22.8551 13.0615 21.6552 12.4616L21.208 13.356ZM23.908 15.624L23.1271 16.2487C23.7252 16.9963 24.06 17.9857 24.06 19.296H25.06H26.06C26.06 17.6303 25.6268 16.1717 24.6889 14.9993L23.908 15.624ZM25.06 19.296H24.06C24.06 20.6292 23.7243 21.7959 23.0657 22.8249L23.908 23.364L24.7503 23.9031C25.6277 22.5321 26.06 20.9868 26.06 19.296H25.06ZM23.908 23.364L23.0581 22.8371C22.4269 23.8551 21.4893 24.683 20.1968 25.3077L20.632 26.208L21.0672 27.1083C22.6547 26.341 23.9011 25.2729 24.7579 23.8909L23.908 23.364ZM20.632 26.208L20.1909 25.3106C18.9403 25.9253 17.4179 26.252 15.592 26.252V27.252V28.252C17.6541 28.252 19.4917 27.8828 21.0731 27.1054L20.632 26.208ZM51.8482 27V28H52.8482V27H51.8482ZM44.7922 27L43.9585 27.5523L44.2551 28H44.7922V27ZM35.3962 12.816L36.2299 12.2637L34.3962 9.49567V12.816H35.3962ZM35.3962 27V28H36.3962V27H35.3962ZM28.3402 27H27.3402V28H28.3402V27ZM28.3402 1.62V0.619999H27.3402V1.62H28.3402ZM35.3962 1.62L36.2331 1.07258L35.937 0.619999H35.3962V1.62ZM44.7922 15.984L43.9554 16.5314L45.7922 19.3395V15.984H44.7922ZM44.7922 1.62V0.619999H43.7922V1.62H44.7922ZM51.8482 1.62H52.8482V0.619999H51.8482V1.62ZM51.8482 27V26H44.7922V27V28H51.8482V27ZM44.7922 27L45.6259 26.4477L36.2299 12.2637L35.3962 12.816L34.5625 13.3683L43.9585 27.5523L44.7922 27ZM35.3962 12.816H34.3962V27H35.3962H36.3962V12.816H35.3962ZM35.3962 27V26H28.3402V27V28H35.3962V27ZM28.3402 27H29.3402V1.62H28.3402H27.3402V27H28.3402ZM28.3402 1.62V2.62H35.3962V1.62V0.619999H28.3402V1.62ZM35.3962 1.62L34.5594 2.16742L43.9554 16.5314L44.7922 15.984L45.6291 15.4366L36.2331 1.07258L35.3962 1.62ZM44.7922 15.984H45.7922V1.62H44.7922H43.7922V15.984H44.7922ZM44.7922 1.62V2.62H51.8482V1.62V0.619999H44.7922V1.62ZM51.8482 1.62H50.8482V27H51.8482H52.8482V1.62H51.8482ZM71.9236 22.86L72.8731 22.5462L72.6463 21.86H71.9236V22.86ZM62.9236 22.86V21.86H62.2008L61.9741 22.5462L62.9236 22.86ZM61.5556 27V28H62.2783L62.5051 27.3138L61.5556 27ZM54.1396 27L53.2 26.6575L52.7107 28H54.1396V27ZM63.3916 1.62V0.619999H62.6917L62.452 1.27751L63.3916 1.62ZM71.5276 1.62L72.4675 1.27868L72.2283 0.619999H71.5276V1.62ZM80.7436 27V28H82.1706L81.6835 26.6587L80.7436 27ZM73.2916 27L72.3421 27.3138L72.5688 28H73.2916V27ZM70.1596 17.46V18.46H71.547L71.1082 17.1438L70.1596 17.46ZM67.4236 9.252L68.3722 8.93577L67.4173 6.07086L66.4736 8.93952L67.4236 9.252ZM64.7236 17.46L63.7736 17.1475L63.3419 18.46H64.7236V17.46ZM71.9236 22.86V21.86H62.9236V22.86V23.86H71.9236V22.86ZM62.9236 22.86L61.9741 22.5462L60.6061 26.6862L61.5556 27L62.5051 27.3138L63.8731 23.1737L62.9236 22.86ZM61.5556 27V26H54.1396V27V28H61.5556V27ZM54.1396 27L55.0791 27.3425L64.3311 1.96249L63.3916 1.62L62.452 1.27751L53.2 26.6575L54.1396 27ZM63.3916 1.62V2.62H71.5276V1.62V0.619999H63.3916V1.62ZM71.5276 1.62L70.5876 1.96131L79.8036 27.3413L80.7436 27L81.6835 26.6587L72.4675 1.27868L71.5276 1.62ZM80.7436 27V26H73.2916V27V28H80.7436V27ZM73.2916 27L74.2411 26.6862L72.8731 22.5462L71.9236 22.86L70.9741 23.1737L72.3421 27.3138L73.2916 27ZM70.1596 17.46L71.1082 17.1438L68.3722 8.93577L67.4236 9.252L66.4749 9.56823L69.2109 17.7762L70.1596 17.46ZM67.4236 9.252L66.4736 8.93952L63.7736 17.1475L64.7236 17.46L65.6735 17.7725L68.3735 9.56447L67.4236 9.252ZM64.7236 17.46V18.46H70.1596V17.46V16.46H64.7236V17.46ZM102.015 14.292L101.145 13.7994L101.142 13.8049L102.015 14.292ZM98.8113 17.316L99.2765 18.2013L99.2819 18.1984L98.8113 17.316ZM90.0993 18.432V17.432H89.0993V18.432H90.0993ZM90.0993 27V28H91.0993V27H90.0993ZM83.0433 27H82.0433V28H83.0433V27ZM83.0433 1.62V0.619999H82.0433V1.62H83.0433ZM98.7753 2.7L98.3221 3.5914L98.3281 3.59443L98.7753 2.7ZM102.015 5.688L101.145 6.1806V6.1806L102.015 5.688ZM90.0993 7.308V6.308H89.0993V7.308H90.0993ZM90.0993 12.816H89.0993V13.816H90.0993V12.816ZM103.095 10.08H102.095C102.095 11.4525 101.776 12.6854 101.145 13.7994L102.015 14.292L102.886 14.7846C103.695 13.3546 104.095 11.7795 104.095 10.08H103.095ZM102.015 14.292L101.142 13.8049C100.552 14.8623 99.636 15.7428 98.3408 16.4336L98.8113 17.316L99.2819 18.1984C100.867 17.3532 102.086 16.2177 102.889 14.7791L102.015 14.292ZM98.8113 17.316L98.3462 16.4308C97.1093 17.0807 95.5389 17.432 93.5913 17.432V18.432V19.432C95.7717 19.432 97.6814 19.0393 99.2765 18.2012L98.8113 17.316ZM93.5913 18.432V17.432H90.0993V18.432V19.432H93.5913V18.432ZM90.0993 18.432H89.0993V27H90.0993H91.0993V18.432H90.0993ZM90.0993 27V26H83.0433V27V28H90.0993V27ZM83.0433 27H84.0433V1.62H83.0433H82.0433V27H83.0433ZM83.0433 1.62V2.62H93.5913V1.62V0.619999H83.0433V1.62ZM93.5913 1.62V2.62C95.5172 2.62 97.0807 2.96015 98.3221 3.59138L98.7753 2.7L99.2286 1.80861C97.638 0.999846 95.7455 0.619999 93.5913 0.619999V1.62ZM98.7753 2.7L98.3281 3.59443C99.6091 4.23492 100.533 5.09905 101.145 6.1806L102.015 5.688L102.886 5.1954C102.058 3.73295 100.822 2.60508 99.2226 1.80557L98.7753 2.7ZM102.015 5.688L101.145 6.1806C101.769 7.28326 102.095 8.5733 102.095 10.08H103.095H104.095C104.095 8.27469 103.701 6.63673 102.886 5.1954L102.015 5.688ZM92.9073 12.816V13.816C94.0367 13.816 95.0703 13.5593 95.8237 12.8695C96.5937 12.1644 96.8953 11.1699 96.8953 10.08H95.8953H94.8953C94.8953 10.8141 94.699 11.1876 94.473 11.3945C94.2304 11.6167 93.77 11.816 92.9073 11.816V12.816ZM95.8953 10.08H96.8953C96.8953 8.9818 96.5959 7.97985 95.8285 7.26789C95.0752 6.56907 94.0396 6.308 92.9073 6.308V7.308V8.308C93.7671 8.308 94.2255 8.50893 94.4682 8.73411C94.6968 8.94615 94.8953 9.33019 94.8953 10.08H95.8953ZM92.9073 7.308V6.308H90.0993V7.308V8.308H92.9073V7.308ZM90.0993 7.308H89.0993V12.816H90.0993H91.0993V7.308H90.0993ZM90.0993 12.816V13.816H92.9073V12.816V11.816H90.0993V12.816Z" fill="black" fill-opacity="0.77" mask="url(#path-1-outside-1_74_491)"/>
</g>
<defs>
<filter id="filter0_d_74_491" x="0.203438" y="0.223999" width="103.892" height="31.028" filterUnits="userSpaceOnUse" color-interpolation-filters="sRGB">
<feFlood flood-opacity="0" result="BackgroundImageFix"/>
<feColorMatrix in="SourceAlpha" type="matrix" values="0 0 0 0 0 0 0 0 0 0 0 0 0 0 0 0 0 0 127 0" result="hardAlpha"/>
<feOffset dx="-4" dy="3"/>
<feComposite in2="hardAlpha" operator="out"/>
<feColorMatrix type="matrix" values="0 0 0 0 0 0 0 0 0 0 0 0 0 0 0 0 0 0 0.49 0"/>
<feBlend mode="normal" in2="BackgroundImageFix" result="effect1_dropShadow_74_491"/>
<feBlend mode="normal" in="SourceGraphic" in2="effect1_dropShadow_74_491" result="shape"/>
</filter>
</defs>
</svg>
