<svg width="132" height="68" viewBox="0 0 132 68" fill="none" xmlns="http://www.w3.org/2000/svg">
<g filter="url(#filter0_d_121_27696)">
<mask id="path-1-outside-1_121_27696" maskUnits="userSpaceOnUse" x="4" y="27" width="101" height="29" fill="black">
<rect fill="white" x="4" y="27" width="101" height="29"/>
<path d="M15.592 54.252C12.64 54.252 10.216 53.556 8.32 52.164C6.424 50.748 5.404 48.732 5.26 46.116H12.784C12.856 47.004 13.12 47.652 13.576 48.06C14.032 48.468 14.62 48.672 15.34 48.672C15.988 48.672 16.516 48.516 16.924 48.204C17.356 47.868 17.572 47.412 17.572 46.836C17.572 46.092 17.224 45.516 16.528 45.108C15.832 44.7 14.704 44.244 13.144 43.74C11.488 43.188 10.144 42.66 9.112 42.156C8.104 41.628 7.216 40.872 6.448 39.888C5.704 38.88 5.332 37.572 5.332 35.964C5.332 34.332 5.74 32.94 6.556 31.788C7.372 30.612 8.5 29.724 9.94 29.124C11.38 28.524 13.012 28.224 14.836 28.224C17.788 28.224 20.14 28.92 21.892 30.312C23.668 31.68 24.616 33.612 24.736 36.108H17.068C17.044 35.34 16.804 34.764 16.348 34.38C15.916 33.996 15.352 33.804 14.656 33.804C14.128 33.804 13.696 33.96 13.36 34.272C13.024 34.584 12.856 35.028 12.856 35.604C12.856 36.084 13.036 36.504 13.396 36.864C13.78 37.2 14.248 37.5 14.8 37.764C15.352 38.004 16.168 38.316 17.248 38.7C18.856 39.252 20.176 39.804 21.208 40.356C22.264 40.884 23.164 41.64 23.908 42.624C24.676 43.584 25.06 44.808 25.06 46.296C25.06 47.808 24.676 49.164 23.908 50.364C23.164 51.564 22.072 52.512 20.632 53.208C19.216 53.904 17.536 54.252 15.592 54.252ZM51.8482 54H44.7922L35.3962 39.816V54H28.3402V28.62H35.3962L44.7922 42.984V28.62H51.8482V54ZM71.9236 49.86H62.9236L61.5556 54H54.1396L63.3916 28.62H71.5276L80.7436 54H73.2916L71.9236 49.86ZM70.1596 44.46L67.4236 36.252L64.7236 44.46H70.1596ZM103.095 37.08C103.095 38.616 102.735 40.02 102.015 41.292C101.319 42.54 100.251 43.548 98.8113 44.316C97.3953 45.06 95.6553 45.432 93.5913 45.432H90.0993V54H83.0433V28.62H93.5913C95.6313 28.62 97.3593 28.98 98.7753 29.7C100.215 30.42 101.295 31.416 102.015 32.688C102.735 33.96 103.095 35.424 103.095 37.08ZM92.9073 39.816C94.8993 39.816 95.8953 38.904 95.8953 37.08C95.8953 35.232 94.8993 34.308 92.9073 34.308H90.0993V39.816H92.9073Z"/>
</mask>
<path d="M15.592 54.252C12.64 54.252 10.216 53.556 8.32 52.164C6.424 50.748 5.404 48.732 5.26 46.116H12.784C12.856 47.004 13.12 47.652 13.576 48.06C14.032 48.468 14.62 48.672 15.34 48.672C15.988 48.672 16.516 48.516 16.924 48.204C17.356 47.868 17.572 47.412 17.572 46.836C17.572 46.092 17.224 45.516 16.528 45.108C15.832 44.7 14.704 44.244 13.144 43.74C11.488 43.188 10.144 42.66 9.112 42.156C8.104 41.628 7.216 40.872 6.448 39.888C5.704 38.88 5.332 37.572 5.332 35.964C5.332 34.332 5.74 32.94 6.556 31.788C7.372 30.612 8.5 29.724 9.94 29.124C11.38 28.524 13.012 28.224 14.836 28.224C17.788 28.224 20.14 28.92 21.892 30.312C23.668 31.68 24.616 33.612 24.736 36.108H17.068C17.044 35.34 16.804 34.764 16.348 34.38C15.916 33.996 15.352 33.804 14.656 33.804C14.128 33.804 13.696 33.96 13.36 34.272C13.024 34.584 12.856 35.028 12.856 35.604C12.856 36.084 13.036 36.504 13.396 36.864C13.78 37.2 14.248 37.5 14.8 37.764C15.352 38.004 16.168 38.316 17.248 38.7C18.856 39.252 20.176 39.804 21.208 40.356C22.264 40.884 23.164 41.64 23.908 42.624C24.676 43.584 25.06 44.808 25.06 46.296C25.06 47.808 24.676 49.164 23.908 50.364C23.164 51.564 22.072 52.512 20.632 53.208C19.216 53.904 17.536 54.252 15.592 54.252ZM51.8482 54H44.7922L35.3962 39.816V54H28.3402V28.62H35.3962L44.7922 42.984V28.62H51.8482V54ZM71.9236 49.86H62.9236L61.5556 54H54.1396L63.3916 28.62H71.5276L80.7436 54H73.2916L71.9236 49.86ZM70.1596 44.46L67.4236 36.252L64.7236 44.46H70.1596ZM103.095 37.08C103.095 38.616 102.735 40.02 102.015 41.292C101.319 42.54 100.251 43.548 98.8113 44.316C97.3953 45.06 95.6553 45.432 93.5913 45.432H90.0993V54H83.0433V28.62H93.5913C95.6313 28.62 97.3593 28.98 98.7753 29.7C100.215 30.42 101.295 31.416 102.015 32.688C102.735 33.96 103.095 35.424 103.095 37.08ZM92.9073 39.816C94.8993 39.816 95.8953 38.904 95.8953 37.08C95.8953 35.232 94.8993 34.308 92.9073 34.308H90.0993V39.816H92.9073Z" fill="#BC9BF3" shape-rendering="crispEdges"/>
<path d="M8.32 52.164L7.7216 52.9652L7.72819 52.9701L8.32 52.164ZM5.26 46.116V45.116H4.20344L4.26151 46.171L5.26 46.116ZM12.784 46.116L13.7807 46.0352L13.7062 45.116H12.784V46.116ZM13.576 48.06L12.9092 48.8052L13.576 48.06ZM16.924 48.204L17.5315 48.9984L17.5379 48.9934L16.924 48.204ZM16.528 45.108L17.0337 44.2453H17.0337L16.528 45.108ZM13.144 43.74L12.8278 44.6887L12.8366 44.6916L13.144 43.74ZM9.112 42.156L8.64799 43.0418L8.66049 43.0484L8.67316 43.0546L9.112 42.156ZM6.448 39.888L5.64343 40.4819L5.65141 40.4927L5.65968 40.5033L6.448 39.888ZM6.556 31.788L7.37206 32.366L7.37759 32.3581L6.556 31.788ZM9.94 29.124L9.55539 28.2009L9.55538 28.2009L9.94 29.124ZM21.892 30.312L21.2699 31.095L21.2758 31.0996L21.2818 31.1042L21.892 30.312ZM24.736 36.108V37.108H25.7852L25.7348 36.06L24.736 36.108ZM17.068 36.108L16.0685 36.1392L16.0988 37.108H17.068V36.108ZM16.348 34.38L15.6836 35.1274L15.6936 35.1363L15.7039 35.1449L16.348 34.38ZM13.36 34.272L14.0405 35.0048L13.36 34.272ZM13.396 36.864L12.6889 37.5711L12.7124 37.5947L12.7375 37.6166L13.396 36.864ZM14.8 37.764L14.3685 38.6661L14.3848 38.6739L14.4013 38.6811L14.8 37.764ZM17.248 38.7L16.913 39.6423L16.9233 39.6458L17.248 38.7ZM21.208 40.356L20.7363 41.2378L20.7485 41.2443L20.7608 41.2504L21.208 40.356ZM23.908 42.624L23.1103 43.2271L23.1186 43.238L23.1271 43.2487L23.908 42.624ZM23.908 50.364L23.0657 49.8249L23.0619 49.831L23.0581 49.8371L23.908 50.364ZM20.632 53.208L20.1968 52.3076L20.1909 52.3106L20.632 53.208ZM15.592 54.252V53.252C12.798 53.252 10.5967 52.5949 8.91181 51.3579L8.32 52.164L7.72819 52.9701C9.83531 54.5171 12.482 55.252 15.592 55.252V54.252ZM8.32 52.164L8.91838 51.3628C7.28698 50.1444 6.38818 48.4171 6.25849 46.061L5.26 46.116L4.26151 46.171C4.41982 49.0469 5.56102 51.3516 7.72162 52.9652L8.32 52.164ZM5.26 46.116V47.116H12.784V46.116V45.116H5.26V46.116ZM12.784 46.116L11.7873 46.1968C11.8706 47.2248 12.1903 48.162 12.9092 48.8052L13.576 48.06L14.2428 47.3148C14.0497 47.142 13.8414 46.7832 13.7807 46.0352L12.784 46.116ZM13.576 48.06L12.9092 48.8052C13.5802 49.4056 14.42 49.672 15.34 49.672V48.672V47.672C14.82 47.672 14.4838 47.5304 14.2428 47.3148L13.576 48.06ZM15.34 48.672V49.672C16.1493 49.672 16.9078 49.4753 17.5315 48.9984L16.924 48.204L16.3166 47.4096C16.1242 47.5567 15.8267 47.672 15.34 47.672V48.672ZM16.924 48.204L17.5379 48.9934C18.228 48.4566 18.572 47.7018 18.572 46.836H17.572H16.572C16.572 47.1222 16.484 47.2794 16.3101 47.4146L16.924 48.204ZM17.572 46.836H18.572C18.572 45.7022 18.0045 44.8144 17.0337 44.2453L16.528 45.108L16.0223 45.9707C16.4435 46.2176 16.572 46.4818 16.572 46.836H17.572ZM16.528 45.108L17.0337 44.2453C16.2393 43.7796 15.025 43.2968 13.4514 42.7884L13.144 43.74L12.8366 44.6916C14.383 45.1912 15.4247 45.6204 16.0223 45.9707L16.528 45.108ZM13.144 43.74L13.4602 42.7913C11.827 42.2469 10.5284 41.7348 9.55084 41.2574L9.112 42.156L8.67316 43.0546C9.75963 43.5852 11.149 44.1291 12.8278 44.6887L13.144 43.74ZM9.112 42.156L9.57601 41.2702C8.70593 40.8144 7.92528 40.1555 7.23632 39.2727L6.448 39.888L5.65968 40.5033C6.50672 41.5885 7.50207 42.4416 8.64799 43.0418L9.112 42.156ZM6.448 39.888L7.25257 39.2941C6.66743 38.5014 6.332 37.4191 6.332 35.964H5.332H4.332C4.332 37.7249 4.74057 39.2586 5.64343 40.4819L6.448 39.888ZM5.332 35.964H6.332C6.332 34.5057 6.69367 33.3237 7.37202 32.366L6.556 31.788L5.73998 31.21C4.78633 32.5563 4.332 34.1583 4.332 35.964H5.332ZM6.556 31.788L7.37759 32.3581C8.0749 31.3531 9.04453 30.5804 10.3246 30.0471L9.94 29.124L9.55538 28.2009C7.95547 28.8676 6.6691 29.8709 5.73441 31.2179L6.556 31.788ZM9.94 29.124L10.3246 30.0471C11.6239 29.5057 13.122 29.224 14.836 29.224V28.224V27.224C12.902 27.224 11.1361 27.5423 9.55539 28.2009L9.94 29.124ZM14.836 28.224V29.224C17.6345 29.224 19.7442 29.8827 21.2699 31.095L21.892 30.312L22.5141 29.529C20.5358 27.9573 17.9415 27.224 14.836 27.224V28.224ZM21.892 30.312L21.2818 31.1042C22.7969 32.2713 23.6294 33.9153 23.7372 36.156L24.736 36.108L25.7348 36.06C25.6026 33.3087 24.5391 31.0887 22.5022 29.5198L21.892 30.312ZM24.736 36.108V35.108H17.068V36.108V37.108H24.736V36.108ZM17.068 36.108L18.0675 36.0768C18.0374 35.1121 17.7243 34.2316 16.9921 33.6151L16.348 34.38L15.7039 35.1449C15.8837 35.2964 16.0506 35.5679 16.0685 36.1392L17.068 36.108ZM16.348 34.38L17.0124 33.6326C16.3615 33.0541 15.5444 32.804 14.656 32.804V33.804V34.804C15.1596 34.804 15.4705 34.9379 15.6836 35.1274L16.348 34.38ZM14.656 33.804V32.804C13.9166 32.804 13.2285 33.0295 12.6795 33.5392L13.36 34.272L14.0405 35.0048C14.1635 34.8905 14.3394 34.804 14.656 34.804V33.804ZM13.36 34.272L12.6795 33.5392C12.0901 34.0866 11.856 34.826 11.856 35.604H12.856H13.856C13.856 35.23 13.9579 35.0814 14.0405 35.0048L13.36 34.272ZM12.856 35.604H11.856C11.856 36.3666 12.154 37.0362 12.6889 37.5711L13.396 36.864L14.1031 36.1569C13.918 35.9718 13.856 35.8014 13.856 35.604H12.856ZM13.396 36.864L12.7375 37.6166C13.202 38.023 13.7502 38.3704 14.3685 38.6661L14.8 37.764L15.2315 36.8619C14.7458 36.6296 14.358 36.377 14.0545 36.1114L13.396 36.864ZM14.8 37.764L14.4013 38.6811C14.9852 38.935 15.827 39.2561 16.913 39.6422L17.248 38.7L17.583 37.7578C16.509 37.3759 15.7188 37.073 15.1987 36.8469L14.8 37.764ZM17.248 38.7L16.9233 39.6458C18.5012 40.1875 19.7674 40.7195 20.7363 41.2378L21.208 40.356L21.6797 39.4742C20.5846 38.8885 19.2108 38.3165 17.5727 37.7542L17.248 38.7ZM21.208 40.356L20.7608 41.2504C21.6729 41.7065 22.4549 42.3602 23.1103 43.2271L23.908 42.624L24.7057 42.0209C23.8731 40.9198 22.8551 40.0615 21.6552 39.4616L21.208 40.356ZM23.908 42.624L23.1271 43.2487C23.7252 43.9963 24.06 44.9857 24.06 46.296H25.06H26.06C26.06 44.6303 25.6268 43.1717 24.6889 41.9993L23.908 42.624ZM25.06 46.296H24.06C24.06 47.6292 23.7243 48.7959 23.0657 49.8249L23.908 50.364L24.7503 50.9031C25.6277 49.5321 26.06 47.9868 26.06 46.296H25.06ZM23.908 50.364L23.0581 49.8371C22.4269 50.8551 21.4893 51.683 20.1968 52.3077L20.632 53.208L21.0672 54.1083C22.6547 53.341 23.9011 52.2729 24.7579 50.8909L23.908 50.364ZM20.632 53.208L20.1909 52.3106C18.9403 52.9253 17.4179 53.252 15.592 53.252V54.252V55.252C17.6541 55.252 19.4917 54.8828 21.0731 54.1054L20.632 53.208ZM51.8482 54V55H52.8482V54H51.8482ZM44.7922 54L43.9585 54.5523L44.2551 55H44.7922V54ZM35.3962 39.816L36.2299 39.2637L34.3962 36.4957V39.816H35.3962ZM35.3962 54V55H36.3962V54H35.3962ZM28.3402 54H27.3402V55H28.3402V54ZM28.3402 28.62V27.62H27.3402V28.62H28.3402ZM35.3962 28.62L36.2331 28.0726L35.937 27.62H35.3962V28.62ZM44.7922 42.984L43.9554 43.5314L45.7922 46.3395V42.984H44.7922ZM44.7922 28.62V27.62H43.7922V28.62H44.7922ZM51.8482 28.62H52.8482V27.62H51.8482V28.62ZM51.8482 54V53H44.7922V54V55H51.8482V54ZM44.7922 54L45.6259 53.4477L36.2299 39.2637L35.3962 39.816L34.5625 40.3683L43.9585 54.5523L44.7922 54ZM35.3962 39.816H34.3962V54H35.3962H36.3962V39.816H35.3962ZM35.3962 54V53H28.3402V54V55H35.3962V54ZM28.3402 54H29.3402V28.62H28.3402H27.3402V54H28.3402ZM28.3402 28.62V29.62H35.3962V28.62V27.62H28.3402V28.62ZM35.3962 28.62L34.5594 29.1674L43.9554 43.5314L44.7922 42.984L45.6291 42.4366L36.2331 28.0726L35.3962 28.62ZM44.7922 42.984H45.7922V28.62H44.7922H43.7922V42.984H44.7922ZM44.7922 28.62V29.62H51.8482V28.62V27.62H44.7922V28.62ZM51.8482 28.62H50.8482V54H51.8482H52.8482V28.62H51.8482ZM71.9236 49.86L72.8731 49.5462L72.6463 48.86H71.9236V49.86ZM62.9236 49.86V48.86H62.2008L61.9741 49.5462L62.9236 49.86ZM61.5556 54V55H62.2783L62.5051 54.3138L61.5556 54ZM54.1396 54L53.2 53.6575L52.7107 55H54.1396V54ZM63.3916 28.62V27.62H62.6917L62.452 28.2775L63.3916 28.62ZM71.5276 28.62L72.4675 28.2787L72.2283 27.62H71.5276V28.62ZM80.7436 54V55H82.1706L81.6835 53.6587L80.7436 54ZM73.2916 54L72.3421 54.3138L72.5688 55H73.2916V54ZM70.1596 44.46V45.46H71.547L71.1082 44.1438L70.1596 44.46ZM67.4236 36.252L68.3722 35.9358L67.4173 33.0709L66.4736 35.9395L67.4236 36.252ZM64.7236 44.46L63.7736 44.1475L63.3419 45.46H64.7236V44.46ZM71.9236 49.86V48.86H62.9236V49.86V50.86H71.9236V49.86ZM62.9236 49.86L61.9741 49.5462L60.6061 53.6862L61.5556 54L62.5051 54.3138L63.8731 50.1737L62.9236 49.86ZM61.5556 54V53H54.1396V54V55H61.5556V54ZM54.1396 54L55.0791 54.3425L64.3311 28.9625L63.3916 28.62L62.452 28.2775L53.2 53.6575L54.1396 54ZM63.3916 28.62V29.62H71.5276V28.62V27.62H63.3916V28.62ZM71.5276 28.62L70.5876 28.9613L79.8036 54.3413L80.7436 54L81.6835 53.6587L72.4675 28.2787L71.5276 28.62ZM80.7436 54V53H73.2916V54V55H80.7436V54ZM73.2916 54L74.2411 53.6862L72.8731 49.5462L71.9236 49.86L70.9741 50.1737L72.3421 54.3138L73.2916 54ZM70.1596 44.46L71.1082 44.1438L68.3722 35.9358L67.4236 36.252L66.4749 36.5682L69.2109 44.7762L70.1596 44.46ZM67.4236 36.252L66.4736 35.9395L63.7736 44.1475L64.7236 44.46L65.6735 44.7725L68.3735 36.5645L67.4236 36.252ZM64.7236 44.46V45.46H70.1596V44.46V43.46H64.7236V44.46ZM102.015 41.292L101.145 40.7994L101.142 40.8049L102.015 41.292ZM98.8113 44.316L99.2765 45.2013L99.2819 45.1984L98.8113 44.316ZM90.0993 45.432V44.432H89.0993V45.432H90.0993ZM90.0993 54V55H91.0993V54H90.0993ZM83.0433 54H82.0433V55H83.0433V54ZM83.0433 28.62V27.62H82.0433V28.62H83.0433ZM98.7753 29.7L98.3221 30.5914L98.3281 30.5944L98.7753 29.7ZM102.015 32.688L101.145 33.1806V33.1806L102.015 32.688ZM90.0993 34.308V33.308H89.0993V34.308H90.0993ZM90.0993 39.816H89.0993V40.816H90.0993V39.816ZM103.095 37.08H102.095C102.095 38.4525 101.776 39.6854 101.145 40.7994L102.015 41.292L102.886 41.7846C103.695 40.3546 104.095 38.7795 104.095 37.08H103.095ZM102.015 41.292L101.142 40.8049C100.552 41.8623 99.636 42.7428 98.3408 43.4336L98.8113 44.316L99.2819 45.1984C100.867 44.3532 102.086 43.2177 102.889 41.7791L102.015 41.292ZM98.8113 44.316L98.3462 43.4308C97.1093 44.0807 95.5389 44.432 93.5913 44.432V45.432V46.432C95.7717 46.432 97.6814 46.0393 99.2765 45.2012L98.8113 44.316ZM93.5913 45.432V44.432H90.0993V45.432V46.432H93.5913V45.432ZM90.0993 45.432H89.0993V54H90.0993H91.0993V45.432H90.0993ZM90.0993 54V53H83.0433V54V55H90.0993V54ZM83.0433 54H84.0433V28.62H83.0433H82.0433V54H83.0433ZM83.0433 28.62V29.62H93.5913V28.62V27.62H83.0433V28.62ZM93.5913 28.62V29.62C95.5172 29.62 97.0807 29.9602 98.3221 30.5914L98.7753 29.7L99.2286 28.8086C97.638 27.9998 95.7455 27.62 93.5913 27.62V28.62ZM98.7753 29.7L98.3281 30.5944C99.6091 31.2349 100.533 32.099 101.145 33.1806L102.015 32.688L102.886 32.1954C102.058 30.7329 100.822 29.6051 99.2226 28.8056L98.7753 29.7ZM102.015 32.688L101.145 33.1806C101.769 34.2833 102.095 35.5733 102.095 37.08H103.095H104.095C104.095 35.2747 103.701 33.6367 102.886 32.1954L102.015 32.688ZM92.9073 39.816V40.816C94.0367 40.816 95.0703 40.5593 95.8237 39.8695C96.5937 39.1644 96.8953 38.1699 96.8953 37.08H95.8953H94.8953C94.8953 37.8141 94.699 38.1876 94.473 38.3945C94.2304 38.6167 93.77 38.816 92.9073 38.816V39.816ZM95.8953 37.08H96.8953C96.8953 35.9818 96.5959 34.9799 95.8285 34.2679C95.0752 33.5691 94.0396 33.308 92.9073 33.308V34.308V35.308C93.7671 35.308 94.2255 35.5089 94.4682 35.7341C94.6968 35.9461 94.8953 36.3302 94.8953 37.08H95.8953ZM92.9073 34.308V33.308H90.0993V34.308V35.308H92.9073V34.308ZM90.0993 34.308H89.0993V39.816H90.0993H91.0993V34.308H90.0993ZM90.0993 39.816V40.816H92.9073V39.816V38.816H90.0993V39.816Z" fill="black" fill-opacity="0.77" mask="url(#path-1-outside-1_121_27696)"/>
</g>
<g filter="url(#filter1_d_121_27696)">
<mask id="path-3-outside-2_121_27696" maskUnits="userSpaceOnUse" x="106.159" y="25.6544" width="15.6344" height="16.2458" fill="black">
<rect fill="white" x="106.159" y="25.6544" width="15.6344" height="16.2458"/>
<path d="M113.201 27.916L119.891 30.2698L112.617 38.4723L108.202 36.919L113.201 27.916Z"/>
</mask>
<path d="M113.201 27.916L119.891 30.2698L112.617 38.4723L108.202 36.919L113.201 27.916Z" fill="#BC9BF3" shape-rendering="crispEdges"/>
<path d="M113.201 27.916L113.533 26.9727L112.737 26.6925L112.327 27.4305L113.201 27.916ZM119.891 30.2698L120.64 30.9333L121.627 29.8202L120.223 29.3265L119.891 30.2698ZM112.617 38.4723L112.285 39.4156L112.919 39.6387L113.365 39.1358L112.617 38.4723ZM108.202 36.919L107.328 36.4335L106.753 37.4692L107.87 37.8623L108.202 36.919ZM113.201 27.916L112.869 28.8593L119.559 31.2131L119.891 30.2698L120.223 29.3265L113.533 26.9727L113.201 27.916ZM119.891 30.2698L119.143 29.6062L111.869 37.8088L112.617 38.4723L113.365 39.1358L120.64 30.9333L119.891 30.2698ZM112.617 38.4723L112.949 37.529L108.534 35.9757L108.202 36.919L107.87 37.8623L112.285 39.4156L112.617 38.4723ZM108.202 36.919L109.076 37.4045L114.076 28.4015L113.201 27.916L112.327 27.4305L107.328 36.4335L108.202 36.919Z" fill="black" fill-opacity="0.77" mask="url(#path-3-outside-2_121_27696)"/>
</g>
<defs>
<filter id="filter0_d_121_27696" x="0.203438" y="27.2241" width="103.892" height="31.0278" filterUnits="userSpaceOnUse" color-interpolation-filters="sRGB">
<feFlood flood-opacity="0" result="BackgroundImageFix"/>
<feColorMatrix in="SourceAlpha" type="matrix" values="0 0 0 0 0 0 0 0 0 0 0 0 0 0 0 0 0 0 127 0" result="hardAlpha"/>
<feOffset dx="-4" dy="3"/>
<feComposite in2="hardAlpha" operator="out"/>
<feColorMatrix type="matrix" values="0 0 0 0 0 0 0 0 0 0 0 0 0 0 0 0 0 0 0.49 0"/>
<feBlend mode="normal" in2="BackgroundImageFix" result="effect1_dropShadow_121_27696"/>
<feBlend mode="normal" in="SourceGraphic" in2="effect1_dropShadow_121_27696" result="shape"/>
</filter>
<filter id="filter1_d_121_27696" x="102.753" y="26.6924" width="18.8741" height="15.9463" filterUnits="userSpaceOnUse" color-interpolation-filters="sRGB">
<feFlood flood-opacity="0" result="BackgroundImageFix"/>
<feColorMatrix in="SourceAlpha" type="matrix" values="0 0 0 0 0 0 0 0 0 0 0 0 0 0 0 0 0 0 127 0" result="hardAlpha"/>
<feOffset dx="-4" dy="3"/>
<feComposite in2="hardAlpha" operator="out"/>
<feColorMatrix type="matrix" values="0 0 0 0 0 0 0 0 0 0 0 0 0 0 0 0 0 0 0.49 0"/>
<feBlend mode="normal" in2="BackgroundImageFix" result="effect1_dropShadow_121_27696"/>
<feBlend mode="normal" in="SourceGraphic" in2="effect1_dropShadow_121_27696" result="shape"/>
</filter>
</defs>
</svg>
