<svg width="16" height="22" viewBox="0 0 16 22" fill="none" xmlns="http://www.w3.org/2000/svg">
<path d="M14.2638 11.94L11.0238 10.32C12.3138 9.32 13.1438 7.76 13.1438 6C13.1438 2.97 10.6738 0.5 7.64379 0.5C4.61379 0.5 2.14379 2.97 2.14379 6C2.14379 8.13 3.36379 9.98 5.14379 10.89V14.15C2.99379 13.69 3.12379 13.71 2.88379 13.71C2.35379 13.71 1.85379 13.92 1.47379 14.3L0.0737915 15.72L5.16379 20.81C5.59379 21.25 6.19379 21.5 6.81379 21.5H13.1138C14.0938 21.5 14.9238 20.8 15.0838 19.83L15.8838 15.12C16.1038 13.82 15.4538 12.54 14.2638 11.94ZM13.9138 14.79L13.1138 19.5H6.81379C6.72379 19.5 6.64379 19.46 6.57379 19.4L2.89379 15.72L7.14379 16.61V6C7.14379 5.72 7.36379 5.5 7.64379 5.5C7.92379 5.5 8.14379 5.72 8.14379 6V12H9.90379L13.3638 13.73C13.7638 13.93 13.9838 14.36 13.9138 14.79ZM4.14379 6C4.14379 4.07 5.71379 2.5 7.64379 2.5C9.57379 2.5 11.1438 4.07 11.1438 6C11.1438 6.95 10.7638 7.81 10.1438 8.44V6C10.1438 4.62 9.02379 3.5 7.64379 3.5C6.26379 3.5 5.14379 4.62 5.14379 6V8.44C4.52379 7.81 4.14379 6.95 4.14379 6Z" fill="white"/>
</svg>
