<svg width="18" height="24" viewBox="0 0 18 24" fill="none" xmlns="http://www.w3.org/2000/svg">
<path d="M9.7875 21.5025L-0.00250244 11.7125V13.7125C-0.00250244 14.2425 0.207497 14.7525 0.587497 15.1225L8.3775 22.9125C9.1575 23.6925 10.4275 23.6925 11.2075 22.9125L17.4175 16.7025C18.1975 15.9225 18.1975 14.6525 17.4175 13.8725L9.7875 21.5025Z" fill="white"/>
<path d="M8.3775 17.9125C8.7675 18.3025 9.2775 18.5025 9.7875 18.5025C10.2975 18.5025 10.8075 18.3025 11.1975 17.9125L17.4075 11.7025C18.1875 10.9225 18.1875 9.6525 17.4075 8.8725L9.6175 1.0825C9.2475 0.712502 8.7375 0.502502 8.2075 0.502502H1.9975C0.897498 0.502502 -0.00250244 1.4025 -0.00250244 2.5025V8.7125C-0.00250244 9.2425 0.207497 9.7525 0.587497 10.1225L8.3775 17.9125ZM1.9975 2.5025H8.2075L15.9975 10.2925L9.7875 16.5025L1.9975 8.7125V2.5025Z" fill="white"/>
<path d="M4.2475 6.0025C4.93785 6.0025 5.4975 5.44286 5.4975 4.7525C5.4975 4.06215 4.93785 3.5025 4.2475 3.5025C3.55714 3.5025 2.9975 4.06215 2.9975 4.7525C2.9975 5.44286 3.55714 6.0025 4.2475 6.0025Z" fill="white"/>
</svg>
